<svg viewBox="0 0 15 14" fill="none" xmlns="http://www.w3.org/2000/svg">
  <path
    d="M7.41077 1.68123C9.0671 1.68123 9.26335 1.68744 9.91754 1.71733C10.3108 1.72191 10.7004 1.79421 11.0691 1.93106C11.3387 2.03038 11.5825 2.189 11.7825 2.3952C11.9887 2.59523 12.1474 2.83903 12.2467 3.1086C12.3835 3.47734 12.4558 3.8669 12.4604 4.26019C12.4903 4.91438 12.4965 5.11063 12.4965 6.76697C12.4965 8.4233 12.4903 8.61955 12.4604 9.27374C12.4558 9.66703 12.3835 10.0566 12.2467 10.4253C12.1434 10.6929 11.9853 10.9359 11.7825 11.1387C11.5797 11.3415 11.3367 11.4996 11.0691 11.6029C10.7004 11.7397 10.3108 11.812 9.91754 11.8166C9.26335 11.8465 9.0671 11.8527 7.41077 11.8527C5.75443 11.8527 5.55818 11.8465 4.90399 11.8166C4.5107 11.812 4.12114 11.7397 3.7524 11.6029C3.48283 11.5036 3.23903 11.3449 3.039 11.1387C2.8328 10.9387 2.67418 10.6949 2.57486 10.4253C2.43801 10.0566 2.36571 9.66703 2.36112 9.27374C2.33124 8.61955 2.32503 8.4233 2.32503 6.76697C2.32503 5.11063 2.33124 4.91438 2.36112 4.26019C2.36571 3.8669 2.43801 3.47734 2.57486 3.1086C2.67418 2.83903 2.8328 2.59523 3.039 2.3952C3.23903 2.189 3.48283 2.03038 3.7524 1.93106C4.12114 1.79421 4.5107 1.72191 4.90399 1.71733C5.55818 1.68744 5.75443 1.68123 7.41077 1.68123ZM7.41077 0.563477C5.72624 0.563477 5.51475 0.570808 4.85324 0.600697C4.33868 0.611331 3.8296 0.708761 3.34748 0.888878C2.93497 1.04857 2.56043 1.29277 2.24789 1.6058C1.93535 1.91882 1.69173 2.29375 1.53268 2.7065C1.35256 3.18862 1.25513 3.6977 1.2445 4.21226C1.21461 4.87095 1.20728 5.08244 1.20728 6.76697C1.20728 8.4515 1.21461 8.66298 1.2445 9.3245C1.25513 9.83906 1.35256 10.3481 1.53268 10.8303C1.69237 11.2428 1.93657 11.6173 2.2496 11.9298C2.56262 12.2424 2.93755 12.486 3.3503 12.6451C3.83242 12.8252 4.3415 12.9226 4.85606 12.9332C5.51475 12.9631 5.72624 12.9705 7.41077 12.9705C9.09529 12.9705 9.30678 12.9631 9.9683 12.9332C10.4829 12.9226 10.9919 12.8252 11.4741 12.6451C11.8866 12.4854 12.2611 12.2412 12.5736 11.9281C12.8862 11.6151 13.1298 11.2402 13.2889 10.8274C13.469 10.3453 13.5664 9.83624 13.577 9.32168C13.6069 8.66298 13.6143 8.4515 13.6143 6.76697C13.6143 5.08244 13.6069 4.87095 13.577 4.20944C13.5664 3.69488 13.469 3.1858 13.2889 2.70368C13.1292 2.29118 12.885 1.91663 12.5719 1.60409C12.2589 1.29155 11.884 1.04793 11.4712 0.888878C10.9891 0.708761 10.48 0.611331 9.96548 0.600697C9.30678 0.570808 9.09529 0.563477 7.41077 0.563477Z"
    fill="currentColor" />
  <path
    d="M7.41112 3.58105C6.78103 3.58105 6.16509 3.7679 5.6412 4.11795C5.1173 4.46801 4.70897 4.96556 4.46785 5.54769C4.22672 6.12981 4.16363 6.77036 4.28656 7.38834C4.40948 8.00632 4.7129 8.57397 5.15843 9.01951C5.60397 9.46505 6.17162 9.76847 6.7896 9.89139C7.40758 10.0143 8.04814 9.95122 8.63026 9.7101C9.21238 9.46898 9.70993 9.06065 10.06 8.53675C10.41 8.01285 10.5969 7.39691 10.5969 6.76683C10.5969 5.92191 10.2612 5.1116 9.6638 4.51415C9.06635 3.9167 8.25604 3.58105 7.41112 3.58105ZM7.41112 8.83485C7.0021 8.83485 6.60227 8.71356 6.26219 8.48632C5.9221 8.25909 5.65704 7.93611 5.50052 7.55822C5.34399 7.18034 5.30304 6.76453 5.38284 6.36338C5.46263 5.96222 5.65959 5.59374 5.94881 5.30452C6.23802 5.0153 6.60651 4.81834 7.00767 4.73855C7.40882 4.65875 7.82463 4.69971 8.20251 4.85623C8.58039 5.01275 8.90337 5.27782 9.13061 5.6179C9.35785 5.95798 9.47913 6.35781 9.47913 6.76683C9.47913 7.3153 9.26125 7.84131 8.87343 8.22914C8.4856 8.61697 7.95959 8.83485 7.41112 8.83485Z"
    fill="currentColor" />
  <path
    d="M10.7224 4.19977C11.1336 4.19977 11.4669 3.86649 11.4669 3.45536C11.4669 3.04422 11.1336 2.71094 10.7224 2.71094C10.3113 2.71094 9.97803 3.04422 9.97803 3.45536C9.97803 3.86649 10.3113 4.19977 10.7224 4.19977Z"
    fill="currentColor" />
</svg>
