<svg viewBox="-45 -5 515 510" fill="none" xmlns="http://www.w3.org/2000/svg">
  <!-- <rect x="-45" y="-5" width="100%" height="100%" fill="#FDF6E9"/> -->
  <path fill-rule="evenodd" clip-rule="evenodd"
    d="M212.5 0L425 122.687V368.061L212.5 490.748L212.5 454.711L213 455L394.865 350V140L213 35L31.1346 140V350L31.4463 350.18L0.108435 368.123L0 368.061V122.687L212.5 0Z"
    fill="#D9A404" />
  <path
    d="M248.274 208.023L233.329 217.488C233.329 217.488 212.51 239.874 205.038 198.028C197.565 156.182 242.038 115.528 281.038 135.028C256.038 130.028 233.329 137.877 223.366 161.693H233.329C227.908 184.008 233.754 193.186 248.274 208.023Z"
    fill="#D9A404" stroke="#D9A404" stroke-width="8" />
  <path
    d="M260.729 250.367C272.999 264.604 277.175 267.174 291.615 271.083C290.492 283.526 288.094 290.146 279.982 301.18C264.339 283.982 260.729 271.083 260.729 250.367Z"
    fill="#D9A404" stroke="#D9A404" stroke-width="8" />
  <path d="M205.432 201.546C198.955 99.4215 336.948 115.363 301.08 201.546" stroke="#D9A404" stroke-width="8" />
  <path d="M75.237 423.923L143.16 374.909C267.205 367.935 307.058 303.671 302.077 197.561" stroke="#D9A404"
    stroke-width="8" />
  <path
    d="M303.571 174.707C305.927 167.316 306.609 163.158 306.467 155.715C314.009 156.565 317.327 157.965 324.807 160.653C332.286 163.341 345.997 174.396 345.399 174.707C337.033 173.568 333.172 173.568 323.841 173.568C316.119 173.568 311.615 173.568 303.571 174.707Z"
    fill="#D9A404" />
  <path
    d="M308.394 192.181C307.125 185.318 306.088 181.721 303.571 175.823C310.84 175.089 314.924 174.849 322.22 174.707C329.525 174.969 333.035 175.787 338.618 176.938C326.426 182.021 319.765 185.263 308.394 192.181Z"
    fill="#D9A404" />
  <path fill-rule="evenodd" clip-rule="evenodd"
    d="M43.9031 401.008C43.9031 401.008 64.7915 362.59 91.0587 319.938L167.051 306.864L192.264 278.196L108.292 292.642C133.026 254.526 159.417 218.769 176.598 209.322C217.213 186.991 254.237 206.706 242.209 258.485C234.074 293.501 146.246 346.339 90.2352 376.879L60.9695 506.869C58.6912 493.766 50.7485 479.16 50.7485 479.16C50.7485 479.16 38.8182 483.104 30.7007 491.125L67.5741 388.971C53.115 396.52 43.9031 401.008 43.9031 401.008Z"
    fill="#D9A404" />
  <path fill-rule="evenodd" clip-rule="evenodd"
    d="M276.172 174.645C283.05 174.645 288.626 169.069 288.626 162.191C288.626 155.313 283.05 149.737 276.172 149.737C269.293 149.737 263.718 155.313 263.718 162.191C263.718 169.069 269.293 174.645 276.172 174.645ZM276.172 167.671C279.198 167.671 281.652 165.217 281.652 162.191C281.652 159.164 279.198 156.711 276.172 156.711C273.145 156.711 270.692 159.164 270.692 162.191C270.692 165.217 273.145 167.671 276.172 167.671Z"
    fill="#D9A404" />
  <path fill-rule="evenodd" clip-rule="evenodd"
    d="M277.493 156.871C279.881 157.462 281.652 159.62 281.652 162.191C281.652 164.006 280.77 165.614 279.411 166.612C288.308 177.512 291.243 184.977 297.143 199.987C297.59 201.122 298.053 202.301 298.537 203.528C312.537 168.028 301.372 141.691 276.67 132.028C276.795 134.838 276.972 137.487 277.142 140.036C277.535 145.93 277.893 151.29 277.493 156.871Z"
    fill="#D9A404" />
</svg>
